<svg id="Camada_1" data-name="Camada 1" xmlns="http://www.w3.org/2000/svg" viewBox="0 0 201.28 49.46"><defs><style>.cls-1{font-size:33.17px;fill:#4eabbf;stroke:#59142d;stroke-miterlimit:10;stroke-width:0.25px;font-family:Poppins-Black, Poppins;font-weight:800;}.cls-2{fill:#aad0ff;}.cls-3{fill:#bf7d65;}.cls-4{fill:#59142d;}</style></defs><text class="cls-1" transform="translate(0.12 28.54)">Travel<tspan class="cls-2" x="111.86" y="0" xml:space="preserve">  </tspan><tspan class="cls-3" x="123.14" y="0">Plan</tspan></text><path class="cls-4" d="M116.61,16h.62a3.63,3.63,0,0,1,3.63,3.63v2a0,0,0,0,1,0,0H113a0,0,0,0,1,0,0v-2A3.63,3.63,0,0,1,116.61,16Z"/><path class="cls-4" d="M228.55,322h2.38a2.74,2.74,0,0,1,2.74,2.74V325a0,0,0,0,1,0,0h-7.87a0,0,0,0,1,0,0v-.23a2.74,2.74,0,0,1,2.74-2.74Z" transform="translate(346.7 347.05) rotate(-180)"/><path class="cls-4" d="M257.11,321c-1.53.19-3.92.47-6.87.75-1.42.14-2.22.19-6.08.54s0,0-4.53.46a24.21,24.21,0,0,0-4.63.74,19.11,19.11,0,0,0-1.85.63,3.1,3.1,0,0,0,.58-1,3.8,3.8,0,0,0,.22-1.51,4.31,4.31,0,0,0-.08-.76c4-.06,6.31-.12,7.7-.16l4.73-.15,1,0c3.7-.1,4.65-.11,5.64-.15.33,0,.63,0,1.09,0,.63,0,.81,0,1.21,0a7,7,0,0,0,3.76-1.36,4.16,4.16,0,0,1-.75,1.16A4,4,0,0,1,257.11,321Z" transform="translate(-112.79 -299.99)"/><path class="cls-4" d="M202.38,321c1.54.19,3.93.47,6.88.75,1.42.14,2.21.19,6.08.54s0,0,4.52.46a24.08,24.08,0,0,1,4.63.74,19.46,19.46,0,0,1,1.86.63,3.38,3.38,0,0,1-.59-1,4.35,4.35,0,0,1-.21-1.51c0-.31,0-.57,0-.76-4.28-.07-6.45-.12-7.64-.16l-2.89-.09-1.84-.06-1,0c-3.7-.1-4.64-.11-5.64-.15-.33,0-.63,0-1.08,0-.64,0-.82,0-1.22,0a7,7,0,0,1-3.75-1.36,3.74,3.74,0,0,0,.75,1.16A4.17,4.17,0,0,0,202.38,321Z" transform="translate(-112.79 -299.99)"/><rect class="cls-4" x="116.64" y="24.79" width="0.61" height="2.37"/><rect class="cls-4" x="229.45" y="325.69" width="0.56" height="2.37" transform="translate(-209.93 256.61) rotate(-90)"/><rect class="cls-4" x="228.55" y="325.61" width="0.72" height="2.29" rx="0.33" transform="translate(345.02 353.52) rotate(-180)"/><rect class="cls-4" x="230.2" y="325.61" width="0.72" height="2.32" rx="0.33" transform="translate(348.32 353.56) rotate(-180)"/><rect class="cls-4" x="109.49" y="22.7" width="0.61" height="4.14"/><rect class="cls-4" x="222.31" y="325.37" width="0.56" height="2.37" transform="translate(-216.76 249.15) rotate(-90)"/><rect class="cls-4" x="221.4" y="325.3" width="0.72" height="2.29" rx="0.33" transform="translate(330.73 352.89) rotate(180)"/><rect class="cls-4" x="223.06" y="325.3" width="0.72" height="2.32" rx="0.33" transform="translate(334.04 352.92) rotate(180)"/><rect class="cls-4" x="123.78" y="22.88" width="0.61" height="4.14"/><rect class="cls-4" x="236.6" y="325.55" width="0.56" height="2.37" transform="translate(-202.65 263.62) rotate(-90)"/><rect class="cls-4" x="235.69" y="325.48" width="0.72" height="2.29" rx="0.33" transform="translate(359.31 353.25) rotate(180)"/><rect class="cls-4" x="237.35" y="325.48" width="0.72" height="2.32" rx="0.33" transform="translate(362.61 353.28) rotate(-180)"/><rect class="cls-4" x="104.69" y="21.88" width="0.95" height="1.64"/><circle class="cls-4" cx="128.73" cy="24.66" r="2"/><rect class="cls-4" x="128.3" y="21.77" width="0.95" height="1.64"/><path class="cls-4" d="M224.23,319.23" transform="translate(-112.79 -299.99)"/><path class="cls-4" d="M225.58,319.78a11,11,0,0,0-1.4-.38l-1-.17c-.53-.08-.88-.14-1.32-.19-.71-.09-.75-.06-1.43-.15a3.51,3.51,0,0,1-1.23-.28,2.4,2.4,0,0,1-.78-.62l-.53-1a3.61,3.61,0,0,0,1.4,1,4.53,4.53,0,0,0,1.75.18c1.18,0,1.87-.14,3-.24.51-.05,1.25-.11,2.18-.14a2.76,2.76,0,0,0-.66,2Z" transform="translate(-112.79 -299.99)"/><path class="cls-4" d="M233.86,319.78a10.51,10.51,0,0,1,1.39-.38l.95-.17c.53-.08.88-.14,1.32-.19.71-.09.75-.06,1.43-.15a3.51,3.51,0,0,0,1.23-.28A2.3,2.3,0,0,0,241,318l.53-1a3.53,3.53,0,0,1-1.4,1,4.53,4.53,0,0,1-1.75.18c-1.18,0-1.87-.14-3-.24-.51-.05-1.26-.11-2.18-.14a2.79,2.79,0,0,1,.55,1A3,3,0,0,1,233.86,319.78Z" transform="translate(-112.79 -299.99)"/><path class="cls-4" d="M231.38,316a4.68,4.68,0,0,0-1.6-.31,4.58,4.58,0,0,0-1.67.31l.94-8.31a.74.74,0,0,1,.7-.81.72.72,0,0,1,.74.71C230.79,310.42,231.08,313.22,231.38,316Z" transform="translate(-112.79 -299.99)"/><circle class="cls-4" cx="105.33" cy="24.66" r="2"/></svg>